<svg width="78" height="78" viewBox="0 0 78 78" fill="none" xmlns="http://www.w3.org/2000/svg">
<path d="M62.4179 1.7015H1.5224V61.0746H62.4179V1.7015Z" fill="white"/>
<path d="M62.4179 1.7015H1.5224V61.0746H62.4179V1.7015Z" fill="white"/>
<path d="M1.5224 1.7015H62.4179V15.403H25.4533L20.1758 14.3078L1.5224 15.403V1.7015Z" fill="#BC9AF4"/>
<path d="M24.3689 26.7445C24.3689 17.6229 26.8219 9.07092 31.1072 1.7015H1.5224V61.0746H38.0597C29.571 52.102 24.3689 40.0273 24.3689 26.7445Z" fill="#D2DCFD"/>
<path d="M31.209 1.7015H1.5224V15.403H25.8239C26.969 10.5296 28.7991 5.92529 31.209 1.7015Z" fill="#6864F7"/>
<path d="M54.0448 52.7015H31.2331L21.8728 51.3289L11.194 51.6719L11.3131 41.2702L10.6567 24.4959L19.875 25.4389L24.1939 23.7761H54.0448V52.7015Z" fill="#FDCB50"/>
<path d="M24.0619 26.8967C24.0619 25.8486 24.0955 24.8083 24.159 23.7761H9.89551V52.7015H31.2089C26.6733 45.1625 24.0619 36.3354 24.0619 26.8967Z" fill="#FD8F01"/>
<path d="M55.9478 49.6567C46.8522 49.6567 39.0569 55.1575 35.7761 62.9776C39.0568 70.7977 46.852 76.2985 55.9478 76.2985C65.0435 76.2985 72.8386 70.7977 76.1194 62.9776C72.8388 55.1575 65.0435 49.6567 55.9478 49.6567Z" fill="white"/>
<path d="M55.9477 69.4478C59.5211 69.4478 62.4179 66.551 62.4179 62.9776C62.4179 59.4042 59.5211 56.5075 55.9477 56.5075C52.3744 56.5075 49.4776 59.4042 49.4776 62.9776C49.4776 66.551 52.3744 69.4478 55.9477 69.4478Z" fill="#B1D952"/>
<path fill-rule="evenodd" clip-rule="evenodd" d="M0 1.7015C0 0.860704 0.678366 0.179108 1.51517 0.179108H62.4251C63.2619 0.179108 63.9403 0.860704 63.9403 1.7015V50.3946H60.91V3.22388H3.03035V59.5522H36.5592V62.597H1.51517C0.678366 62.597 0 61.9154 0 61.0746V1.7015Z" fill="#052A75"/>
<path d="M10.6567 8.55224C10.6567 9.39303 9.97512 10.0746 9.13433 10.0746C8.29353 10.0746 7.61194 9.39303 7.61194 8.55224C7.61194 7.71145 8.29353 7.02985 9.13433 7.02985C9.97512 7.02985 10.6567 7.71145 10.6567 8.55224Z" fill="white"/>
<path d="M17.5075 8.55224C17.5075 9.39303 16.8259 10.0746 15.9851 10.0746C15.1443 10.0746 14.4627 9.39303 14.4627 8.55224C14.4627 7.71145 15.1443 7.02985 15.9851 7.02985C16.8259 7.02985 17.5075 7.71145 17.5075 8.55224Z" fill="white"/>
<path d="M23.597 8.55224C23.597 9.39303 22.9154 10.0746 22.0746 10.0746C21.2338 10.0746 20.5522 9.39303 20.5522 8.55224C20.5522 7.71145 21.2338 7.02985 22.0746 7.02985C22.9154 7.02985 23.597 7.71145 23.597 8.55224Z" fill="white"/>
<path fill-rule="evenodd" clip-rule="evenodd" d="M31.209 8.55224C31.209 7.71145 31.8917 7.02985 32.7338 7.02985H55.5647C56.4068 7.02985 57.0896 7.71145 57.0896 8.55224C57.0896 9.39303 56.4068 10.0746 55.5647 10.0746H32.7338C31.8917 10.0746 31.209 9.39303 31.209 8.55224Z" fill="white"/>
<path fill-rule="evenodd" clip-rule="evenodd" d="M28.9432 35.2272L25.0371 45.6129C24.7361 46.4131 23.8515 46.8148 23.0612 46.51C22.271 46.2052 21.8743 45.3094 22.1753 44.5091L27.2349 31.0565C27.2393 31.0448 27.2439 31.0332 27.2485 31.0216C27.8705 29.4811 30.0221 29.4811 30.6468 31.0174C30.6526 31.0316 30.6582 31.0459 30.6635 31.0603L35.6771 44.5135C35.9757 45.3147 35.5763 46.2093 34.7851 46.5117C33.9939 46.814 33.1105 46.4096 32.812 45.6084L28.9432 35.2272Z" fill="#052A75"/>
<path fill-rule="evenodd" clip-rule="evenodd" d="M23.597 42.0448C23.597 41.204 24.2881 40.5224 25.1407 40.5224H32.71C33.5626 40.5224 34.2537 41.204 34.2537 42.0448C34.2537 42.8856 33.5626 43.5672 32.71 43.5672H25.1407C24.2881 43.5672 23.597 42.8856 23.597 42.0448Z" fill="#052A75"/>
<path fill-rule="evenodd" clip-rule="evenodd" d="M41.1045 29.8657C41.9453 29.8657 42.6269 30.5599 42.6269 31.4163V45.0614C42.6269 45.9177 41.9453 46.6119 41.1045 46.6119C40.2637 46.6119 39.5821 45.9177 39.5821 45.0614V31.4163C39.5821 30.5599 40.2637 29.8657 41.1045 29.8657Z" fill="#052A75"/>
<path fill-rule="evenodd" clip-rule="evenodd" d="M34.3705 62.3973C37.8787 54.0269 46.2155 48.1343 55.9478 48.1343C65.6801 48.1343 74.0169 54.0269 77.525 62.3973C77.6807 62.7688 77.6807 63.1864 77.525 63.558C74.0168 71.9283 65.6801 77.8209 55.9478 77.8209C46.2154 77.8209 37.8786 71.9283 34.3705 63.5579C34.2148 63.1864 34.2148 62.7688 34.3705 62.3973ZM37.4518 62.9776C40.6375 69.9467 47.7222 74.7917 55.9478 74.7917C64.1733 74.7917 71.2579 69.9467 74.4437 62.9776C71.258 56.0085 64.1733 51.1636 55.9478 51.1636C47.7224 51.1636 40.6376 56.0085 37.4518 62.9776Z" fill="#052A75"/>
</svg>
