<svg width="98" height="98" viewBox="0 0 98 98" fill="none" xmlns="http://www.w3.org/2000/svg">
<path d="M65.0558 39.0469L49.1418 31.2586L33.2277 39.0469L49.1418 46.8087L65.0558 39.0469Z" fill="#FFBA33"/>
<path d="M65.0558 39.0469L49.1418 46.8185V68.9062L65.0558 60.8346V39.0469Z" fill="#027EF1"/>
<path d="M33.2277 39.0469L49.1418 46.8185V68.9062L33.2277 60.8346V39.0469Z" fill="#0048D4"/>
<path fill-rule="evenodd" clip-rule="evenodd" d="M12.7668 32.1562C12.7668 21.1623 21.5882 12.25 32.4699 12.25H40.8058C42.4799 12.25 43.8371 13.6212 43.8371 15.3125C43.8371 17.0038 42.4799 18.375 40.8058 18.375H32.4699C24.9363 18.375 18.8293 24.545 18.8293 32.1562V40.5781C18.8293 42.2695 17.4721 43.6406 15.798 43.6406C14.124 43.6406 12.7668 42.2695 12.7668 40.5781V32.1562ZM54.4465 15.3125C54.4465 13.6212 55.8036 12.25 57.4777 12.25H65.8137C76.6951 12.25 85.5168 21.1623 85.5168 32.1562V40.5781C85.5168 42.2695 84.1595 43.6406 82.4855 43.6406C80.8115 43.6406 79.4543 42.2695 79.4543 40.5781V32.1562C79.4543 24.545 73.3472 18.375 65.8137 18.375H57.4777C55.8036 18.375 54.4465 17.0038 54.4465 15.3125ZM15.798 54.3594C17.4721 54.3594 18.8293 55.7305 18.8293 57.4219V65.8438C18.8293 73.455 24.9363 79.625 32.4699 79.625H40.8058C42.4799 79.625 43.8371 80.9962 43.8371 82.6875C43.8371 84.3788 42.4799 85.75 40.8058 85.75H32.4699C21.5882 85.75 12.7668 76.8374 12.7668 65.8438V57.4219C12.7668 55.7305 14.124 54.3594 15.798 54.3594ZM82.4855 54.3594C84.1595 54.3594 85.5168 55.7305 85.5168 57.4219V65.8438C85.5168 76.8374 76.6951 85.75 65.8137 85.75H57.4777C55.8036 85.75 54.4465 84.3788 54.4465 82.6875C54.4465 80.9962 55.8036 79.625 57.4777 79.625H65.8137C73.3472 79.625 79.4543 73.455 79.4543 65.8438V57.4219C79.4543 55.7305 80.8115 54.3594 82.4855 54.3594Z" fill="#FFBA33"/>
</svg>
